<svg width="114" height="32" viewBox="0 0 114 32" fill="none" xmlns="http://www.w3.org/2000/svg">  <g clip-path="url(#clip0_3906_7397)">    <path d="M24.92 12.5833C22.38 10.2943 19.57 8.24431 16.5 6.47531C13.43 4.70431 10.25 3.28531 7 2.23531C5.45 1.71531 3.88 1.29531 2.31 0.945312C1.82 2.48431 1.41 4.05531 1.08 5.65431C0.37 8.99431 0 12.4443 0 15.9933C0 19.5443 0.37 23.0033 1.08 26.3453C1.41 27.9453 1.82 29.5153 2.309 31.0543C3.879 30.7043 5.45 30.2843 6.999 29.7653C10.249 28.7143 13.429 27.3043 16.499 25.5253C19.569 23.7543 22.379 21.7053 24.919 19.4143C26.139 18.3343 27.289 17.1953 28.379 16.0043C27.29 14.8043 26.14 13.6633 24.92 12.5833ZM7 22.9253V9.07431L19 16.0033L7 22.9253Z" fill="url(#paint0_linear_3906_7397)"/>    <path d="M42.4657 21.1113C39.7447 21.1113 38.0057 18.9453 38.0057 16.4273C38.0057 13.8813 39.7157 11.8013 42.3537 11.8013C44.5987 11.8013 46.0847 13.4113 46.0847 13.4113L47.6557 10.8643C47.6557 10.8643 45.8877 8.63934 42.1577 8.63934C37.4167 8.63934 34.3867 12.2093 34.3867 16.4553C34.3867 20.7863 37.4157 24.2713 42.1577 24.2713C46.0007 24.2713 48.0497 21.8433 48.0497 21.8433L46.6747 19.2063C46.6737 19.2093 44.8787 21.1113 42.4657 21.1113ZM53.5137 18.7113V3.02734H49.9287V19.2663C49.9287 23.5403 52.4047 24.0683 54.3957 24.0683C54.9927 24.0683 55.5347 23.9803 55.5347 23.9803V20.7303C55.5347 20.7303 55.2777 20.7573 54.9937 20.7573C54.0537 20.7583 53.5137 20.3483 53.5137 18.7113ZM58.1287 23.9223H61.7427V8.99234H58.1287V23.9223ZM59.9487 3.63034C58.8487 3.63034 57.9557 4.46934 57.9557 5.50434C57.9557 6.53934 58.8487 7.37834 59.9487 7.37834C61.0507 7.37834 61.9407 6.53934 61.9407 5.50434C61.9407 4.46934 61.0507 3.63034 59.9487 3.63034ZM75.8477 9.69334C75.8477 10.1613 75.8767 10.5433 75.8767 10.5433H75.8157C75.8157 10.5433 74.7457 8.64034 71.3247 8.64034C67.2007 8.64034 64.2707 11.7133 64.2707 16.4553C64.2707 21.0803 66.9587 24.2723 71.1727 24.2723C74.7447 24.2723 76.0617 21.7273 76.0617 21.7273H76.1227C76.1227 21.7273 76.0617 22.1363 76.0617 22.6913V23.9223H79.4567V3.02734H75.8477V9.69334ZM71.9357 21.1153C69.5707 21.1153 67.9297 19.2703 67.9297 16.4343C67.9297 13.4803 69.7587 11.8133 71.9647 11.8133C74.6447 11.8133 75.9667 14.0953 75.9667 16.4063C75.9687 19.7113 74.0137 21.1153 71.9357 21.1153ZM89.5137 8.64034C84.8827 8.64034 81.6227 11.8613 81.6227 16.4553C81.6227 20.7013 84.8217 24.2723 89.9727 24.2723C93.8417 24.2723 95.9827 21.8553 95.9827 21.8553L94.5687 19.3183C94.5687 19.3183 92.7447 21.1133 90.2467 21.1133C87.9307 21.1133 85.6877 20.2643 85.4437 17.6583H96.3087C96.3087 17.6583 96.3827 16.7283 96.3827 15.9023C96.3827 11.9483 93.9937 8.64034 89.5137 8.64034ZM85.4427 15.1223C85.6107 13.3343 86.9677 11.7873 89.0877 11.7873C91.3627 11.7873 92.7697 13.2573 92.8297 15.1223H85.4427ZM105.801 8.64034C101.594 8.64034 98.2047 11.8893 98.2047 16.4553C98.2047 21.0533 101.596 24.2723 105.83 24.2723C110.037 24.2723 113.428 21.0523 113.428 16.4553C113.428 11.8903 110.035 8.64034 105.801 8.64034ZM105.828 21.1113C103.576 21.1113 101.879 19.2373 101.879 16.4553C101.879 13.7053 103.576 11.8013 105.828 11.8013C108.055 11.8013 109.748 13.7033 109.748 16.4553C109.748 19.2373 108.055 21.1113 105.828 21.1113Z" fill="#262628"/>  </g>  <defs>    <linearGradient id="paint0_linear_3906_7397" x1="0" y1="0.945312" x2="0" y2="31.0543" gradientUnits="userSpaceOnUse">      <stop stop-color="#3291FF"/>      <stop offset="1" stop-color="#00D58E"/>    </linearGradient>    <clipPath id="clip0_3906_7397">      <rect width="114" height="32" fill="white"/>    </clipPath>  </defs></svg>